HIERARCHY
ROOT joint_Root
{
	OFFSET 0.0 0.0 0.0
	CHANNELS 6 Xposition Yposition Zposition Zrotation Xrotation Yrotation 
	JOINT Hips
	{
		OFFSET -0.726466 93.3139 -2.00062
		CHANNELS 6 Xposition Yposition Zposition Zrotation Xrotation Yrotation 
		JOINT Spine
		{
			OFFSET 15.7357 0.0 0.0
			CHANNELS 6 Xposition Yposition Zposition Zrotation Xrotation Yrotation 
			JOINT Chest
			{
				OFFSET 8.98455 -0.406207 0.0
				CHANNELS 6 Xposition Yposition Zposition Zrotation Xrotation Yrotation 
				JOINT Neck
				{
					OFFSET 16.3773 0.0 0.0
					CHANNELS 6 Xposition Yposition Zposition Zrotation Xrotation Yrotation 
					JOINT Head
					{
						OFFSET 6.45672 0.0 0.0
						CHANNELS 6 Xposition Yposition Zposition Zrotation Xrotation Yrotation 
						End Site
						{
							OFFSET 0.0 0.0 0.0
						}
					}
				}
				JOINT Shoulder_L
				{
					OFFSET 12.9942 -0.242716 4.98039
					CHANNELS 6 Xposition Yposition Zposition Zrotation Xrotation Yrotation 
					JOINT UpperArm_L
					{
						OFFSET 5.34809 0.0 0.0
						CHANNELS 6 Xposition Yposition Zposition Zrotation Xrotation Yrotation 
						JOINT LowerArm_L
						{
							OFFSET 24.3286 1.87007e-05 0.0
							CHANNELS 6 Xposition Yposition Zposition Zrotation Xrotation Yrotation 
							JOINT Hand_L
							{
								OFFSET 22.2916 0.0 0.0
								CHANNELS 6 Xposition Yposition Zposition Zrotation Xrotation Yrotation 
								End Site
								{
									OFFSET 0.0 0.0 0.0
								}
							}
						}
					}
				}
				JOINT Shoulder_R
				{
					OFFSET 12.9945 -0.242716 -4.98039
					CHANNELS 6 Xposition Yposition Zposition Zrotation Xrotation Yrotation 
					JOINT UpperArm_R
					{
						OFFSET -5.34813 0.0 0.0
						CHANNELS 6 Xposition Yposition Zposition Zrotation Xrotation Yrotation 
						JOINT LowerArm_R
						{
							OFFSET -24.3289 0.000322201 0.0
							CHANNELS 6 Xposition Yposition Zposition Zrotation Xrotation Yrotation 
							JOINT Hand_R
							{
								OFFSET -22.2915 -0.000108084 0.0
								CHANNELS 6 Xposition Yposition Zposition Zrotation Xrotation Yrotation 
								End Site
								{
									OFFSET 0.0 0.0 0.0
								}
							}
						}
					}
				}
			}
		}
		JOINT UpperLeg_L
		{
			OFFSET -2.19248 -6.46944 0.0
			CHANNELS 6 Xposition Yposition Zposition Zrotation Xrotation Yrotation 
			JOINT LowerLeg_L
			{
				OFFSET 39.0811 0.0 -1.23785e-05
				CHANNELS 6 Xposition Yposition Zposition Zrotation Xrotation Yrotation 
				JOINT Foot_L
				{
					OFFSET 40.9854 0.0 -1.26872e-05
					CHANNELS 6 Xposition Yposition Zposition Zrotation Xrotation Yrotation 
					JOINT Toes_L
					{
						OFFSET 11.7543 0.0 0.0
						CHANNELS 6 Xposition Yposition Zposition Zrotation Xrotation Yrotation 
						End Site
						{
							OFFSET 0.0 0.0 0.0
						}
					}
				}
			}
		}
		JOINT UpperLeg_R
		{
			OFFSET -2.19251 6.46944 0.0
			CHANNELS 6 Xposition Yposition Zposition Zrotation Xrotation Yrotation 
			JOINT LowerLeg_R
			{
				OFFSET -39.0811 -0.00228153 -0.0401928
				CHANNELS 6 Xposition Yposition Zposition Zrotation Xrotation Yrotation 
				JOINT Foot_R
				{
					OFFSET -40.9854 0.0 0.0
					CHANNELS 6 Xposition Yposition Zposition Zrotation Xrotation Yrotation 
					JOINT Toes_R
					{
						OFFSET -11.7543 0.0 0.0
						CHANNELS 6 Xposition Yposition Zposition Zrotation Xrotation Yrotation 
						End Site
						{
							OFFSET 0.0 0.0 0.0
						}
					}
				}
			}
		}
	}
}
MOTION
Frames:	6
Frame Time:	0.0333333
0.000000 0.000000 0.000000 0.000000 0.000000 -0.000000 132.517000 86.934700 170.230000 93.438900 -56.777400 6.922470 15.735700 0.000005 -0.000001 102.692000 81.358500 -103.438000 8.984550 -0.406207 -0.000000 9.134440 3.768020 -1.791750 16.377300 -0.000001 -0.000001 12.603600 -13.667400 5.250230 6.456720 -0.000001 -0.000000 5.724520 -26.627600 5.190220 12.994200 -0.242716 4.980390 -88.631200 -2.736670 -63.413100 5.348090 -0.000007 -0.000001 -67.891100 27.011800 2.775580 24.328600 0.000019 0.000005 5.221010 10.003400 -27.746000 22.291600 -0.000001 0.000005 1.687600 5.485270 -5.951420 12.994500 -0.242716 -4.980390 89.415100 1.390210 -67.181300 -5.348130 -0.000001 -0.000004 -54.348800 26.519600 -24.181300 -24.328900 0.000322 -0.000009 5.333880 5.583260 -43.825800 -22.291500 -0.000108 -0.000004 6.375750 5.537300 -8.120110 -2.192480 -6.469440 -0.000000 -170.369000 -3.375390 -25.110100 39.081100 -0.000007 -0.000012 -0.165690 0.230477 35.712700 40.985400 -0.000006 -0.000013 -10.020000 3.923420 -56.221700 11.754300 -0.000000 0.000003 -0.004126 -0.052755 -18.722800 -2.192510 6.469440 -0.000001 174.158000 -6.099030 -170.898000 -39.081100 -0.002282 -0.040193 0.045879 -0.054798 37.858100 -40.985400 0.000008 0.000006 12.385100 7.125410 -73.318800 -11.754300 -0.000006 -0.000006 -0.079992 -0.391921 -32.844300
0.000000 0.000000 0.000000 0.000000 0.000000 -0.000000 130.824000 87.114700 173.538000 92.561600 -59.446200 6.922920 15.735700 0.000005 -0.000001 101.062000 81.293100 -101.771000 8.984550 -0.406207 -0.000000 9.356840 3.312680 -1.689290 16.377300 -0.000001 -0.000001 12.563900 -13.162800 4.550120 6.456720 -0.000001 -0.000000 5.871900 -25.147300 5.343710 12.994200 -0.242716 4.980390 -88.734900 -2.556140 -63.657300 5.348090 -0.000007 -0.000001 -67.034400 26.796600 0.347319 24.328600 0.000019 0.000005 5.381930 10.344400 -27.683800 22.291600 -0.000001 0.000005 2.276230 5.475350 -5.571570 12.994500 -0.242716 -4.980390 89.451300 1.316220 -67.368400 -5.348130 -0.000001 -0.000004 -57.915800 26.141600 -21.022800 -24.328900 0.000322 -0.000009 4.774160 5.535560 -40.892600 -22.291500 -0.000108 -0.000004 6.285620 5.541490 -8.310530 -2.192480 -6.469440 -0.000000 -170.564000 -5.606150 -23.174500 39.081100 -0.000007 -0.000012 -0.188356 0.230566 39.246800 40.985400 -0.000006 -0.000013 -8.675880 4.291370 -60.631800 11.754300 -0.000000 0.000003 -0.001459 -0.021734 -17.460500 -2.192510 6.469440 -0.000001 172.749000 -5.907770 -173.299000 -39.081100 -0.002282 -0.040193 0.088708 -0.087716 44.247400 -40.985400 0.000008 0.000006 12.556900 9.934790 -67.028000 -11.754300 -0.000006 -0.000006 -0.116741 -0.484325 -36.876700
0.000000 0.000000 0.000000 0.000000 0.000000 -0.000000 129.151000 87.529200 176.397000 91.077500 -62.137400 6.438000 15.735700 0.000005 -0.000001 99.104200 81.189100 -99.693500 8.984550 -0.406207 -0.000000 9.656700 2.762120 -1.411220 16.377300 -0.000001 -0.000001 12.448100 -12.477100 3.784900 6.456720 -0.000001 -0.000000 6.083760 -23.378500 5.353690 12.994200 -0.242716 4.980390 -88.800800 -2.455220 -63.957600 5.348090 -0.000007 -0.000001 -65.884500 26.954600 -2.388340 24.328600 0.000019 0.000005 5.100490 9.629050 -28.084600 22.291600 -0.000001 0.000005 3.526990 5.479950 -5.746350 12.994500 -0.242716 -4.980390 89.394200 1.457580 -67.427500 -5.348130 -0.000001 -0.000004 -60.794100 26.342100 -18.461800 -24.328900 0.000322 -0.000009 4.244350 5.615400 -37.185300 -22.291500 -0.000108 -0.000004 6.053830 5.544300 -8.439700 -2.192480 -6.469440 -0.000000 -170.287000 -6.253680 -20.159100 39.081100 -0.000007 -0.000012 -0.257420 0.300697 40.566600 40.985400 -0.000006 -0.000013 -8.126470 2.882490 -64.096400 11.754300 -0.000000 0.000003 -0.000542 -0.008679 -16.930000 -2.192510 6.469440 -0.000001 171.776000 -5.398190 -177.555000 -39.081100 -0.002282 -0.040193 0.167228 -0.127539 52.126800 -40.985400 0.000008 0.000006 9.604070 11.765500 -58.334400 -11.754300 -0.000006 -0.000006 -0.084400 -0.404076 -33.368400
0.000000 0.000000 0.000000 0.000000 0.000000 -0.000000 127.410000 88.054400 178.686000 89.584500 -64.820500 5.557870 15.735700 0.000005 -0.000001 96.792600 81.170500 -97.322500 8.984550 -0.406207 -0.000000 9.783540 2.066660 -1.236020 16.377300 -0.000001 -0.000001 12.348200 -11.664900 3.164340 6.456720 -0.000001 -0.000000 6.140410 -21.391900 5.240020 12.994200 -0.242716 4.980390 -88.763700 -2.576630 -64.355900 5.348090 -0.000007 -0.000001 -64.493000 26.794700 -5.186490 24.328600 0.000019 0.000005 4.803960 8.656570 -29.177800 22.291600 -0.000001 0.000005 4.366440 5.486920 -6.015260 12.994500 -0.242716 -4.980390 89.324400 1.626450 -67.438400 -5.348130 -0.000001 -0.000004 -63.212100 27.169400 -16.214000 -24.328900 0.000322 -0.000009 4.086250 6.251780 -33.273200 -22.291500 -0.000108 -0.000004 5.867260 5.544790 -8.462540 -2.192480 -6.469440 -0.000000 -170.029000 -6.349670 -16.895900 39.081100 -0.000007 -0.000012 -0.305714 0.360361 40.310400 40.985400 -0.000006 -0.000013 -8.172480 0.728241 -66.638000 11.754300 -0.000000 0.000003 -0.000176 -0.002916 -16.695900 -2.192510 6.469440 -0.000001 171.419000 -4.757380 177.372000 -39.081100 -0.002282 -0.040193 0.282130 -0.167435 59.024200 -40.985400 0.000008 0.000006 3.611870 9.321160 -48.907400 -11.754300 -0.000006 -0.000006 -0.025939 -0.198207 -24.684200
0.000000 0.000000 0.000000 0.000000 0.000000 -0.000000 125.614000 88.624100 180.527000 87.804300 -67.320200 4.244670 15.735700 0.000005 -0.000001 94.407200 81.174500 -94.885400 8.984550 -0.406207 -0.000000 9.840530 1.339420 -1.071090 16.377300 -0.000001 -0.000001 12.257200 -10.841900 2.724070 6.456720 -0.000001 -0.000000 6.218960 -19.444800 5.355680 12.994200 -0.242716 4.980390 -88.658200 -2.851390 -64.786100 5.348090 -0.000007 -0.000001 -62.601400 26.701400 -8.368900 24.328600 0.000019 0.000005 4.271290 7.304290 -30.431600 22.291600 -0.000001 0.000005 4.925590 5.493910 -6.289840 12.994500 -0.242716 -4.980390 89.232200 1.829280 -67.227000 -5.348130 -0.000001 -0.000004 -65.371400 27.963800 -13.595000 -24.328900 0.000322 -0.000009 4.327470 7.443350 -30.297300 -22.291500 -0.000108 -0.000004 5.360350 5.543590 -8.407020 -2.192480 -6.469440 -0.000000 -169.714000 -6.369080 -13.446200 39.081100 -0.000007 -0.000012 -0.333145 0.410928 39.032800 40.985400 -0.000006 -0.000013 -8.484930 -1.434750 -68.488600 11.754300 -0.000000 0.000003 -0.000001 -0.000008 -16.577800 -2.192510 6.469440 -0.000001 171.811000 -2.808130 173.466000 -39.081100 -0.002282 -0.040193 0.340251 -0.165487 63.851600 -40.985400 0.000008 0.000006 2.885260 2.609230 -49.068000 -11.754300 -0.000006 -0.000006 -0.022521 -0.180872 -23.967900
0.000000 0.000000 0.000000 0.000000 0.000000 -0.000000 123.881000 89.225000 182.102000 85.105200 -69.535900 1.697760 15.735700 0.000005 -0.000001 91.735600 81.315200 -92.032900 8.984550 -0.406207 -0.000000 9.597260 0.518254 -0.637639 16.377300 -0.000001 -0.000001 12.260500 -10.241600 2.263170 6.456720 -0.000001 -0.000000 6.299470 -17.375000 5.392040 12.994200 -0.242716 4.980390 -88.676600 -2.862160 -65.171900 5.348090 -0.000007 -0.000001 -59.836800 26.897700 -11.748300 24.328600 0.000019 0.000005 3.798660 6.174330 -31.688200 22.291600 -0.000001 0.000005 5.116780 5.500640 -6.558930 12.994500 -0.242716 -4.980390 89.229300 1.806830 -66.894600 -5.348130 -0.000001 -0.000004 -67.455000 28.511700 -10.651600 -24.328900 0.000322 -0.000009 4.415830 8.408290 -27.844900 -22.291500 -0.000108 -0.000004 4.812060 5.540400 -8.260840 -2.192480 -6.469440 -0.000000 -169.163000 -6.937210 -10.227700 39.081100 -0.000007 -0.000012 -0.345082 0.456849 37.066400 40.985400 -0.000006 -0.000013 -8.684200 -2.991070 -69.693200 11.754300 -0.000000 0.000003 -0.000006 -0.000078 -16.580600 -2.192510 6.469440 -0.000001 172.939000 0.428766 170.162000 -39.081100 -0.002282 -0.040193 0.333969 -0.148743 65.790100 -40.985400 0.000008 0.000006 7.037180 -1.738740 -51.976700 -11.754300 -0.000006 -0.000006 -0.021843 -0.177294 -23.820300
